<svg id="Layer_1" data-name="Layer 1" xmlns="http://www.w3.org/2000/svg" width="32" height="30" viewBox="0 0 1249.95 1030.46">
    <defs>
        <style>.cls-1{fill:#0b0055;}</style>
    </defs>
    <path class="cls-1" d="M753.59,1326.31v-22.69h96.72v22.69H816.79v99.86H786.94v-99.86Z" transform="translate(-753.59 -431.68)" />
    <path class="cls-1" d="M927,1329.28A15.27,15.27,0,0,0,927,1333a32.89,32.89,0,0,1-.08,6.37,38.12,38.12,0,0,1-1.4,6.54,9.9,9.9,0,0,1-4.28,5.59,15,15,0,0,1-8.29,2.1,93.55,93.55,0,0,0-11.35.52,16.48,16.48,0,0,0-7.15,2.62,10,10,0,0,0-4.19,5.93,41.42,41.42,0,0,0-1,10.48V1429a24.63,24.63,0,0,0-8.29-3.58q-5.16-1.31-8.73-2a11,11,0,0,1-6.38-4.11q-2.79-3.4-2.79-9.86v-46.79q0-1,.09-2.88a48.09,48.09,0,0,1,.61-5.06,33.18,33.18,0,0,1,1.75-6.46,30.81,30.81,0,0,1,3.66-6.72,26.68,26.68,0,0,1,5.94-6.11,29.77,29.77,0,0,1,9-4.36,40.36,40.36,0,0,1,12.31-1.75H927Z" transform="translate(-753.59 -431.68)" />
    <path class="cls-1" d="M943.53,1353.72a8.13,8.13,0,0,0-.17-1.4,17.37,17.37,0,0,1-.09-3.4,30.13,30.13,0,0,1,.53-4.8,23,23,0,0,1,1.74-5.15,15,15,0,0,1,3.49-4.89,17.86,17.86,0,0,1,5.94-3.4,25.27,25.27,0,0,1,8.82-1.4h4.88q4.55-.18,9.34,0c3.2.12,6.4.26,9.6.44a45.27,45.27,0,0,1,9.34,1.48,65.64,65.64,0,0,1,8.65,3,25.2,25.2,0,0,1,7.5,5,33.19,33.19,0,0,1,9.87,17.72,62.22,62.22,0,0,1,1.39,13.79v19.21a49.91,49.91,0,0,1-1.57,13,33.86,33.86,0,0,1-3.93,9.52,26.92,26.92,0,0,1-5.84,6.46,29.23,29.23,0,0,1-6.55,4.1,35.88,35.88,0,0,1-7.07,2.1,61.49,61.49,0,0,1-6.2,1c-1.46.11-3.17.17-5.15.17H964c-.35,0-.87,0-1.57-.09s-2-.23-3.93-.52a33.2,33.2,0,0,1-5.5-1.31,28.46,28.46,0,0,1-5.85-2.88,23,23,0,0,1-5.5-4.71,23.22,23.22,0,0,1-3.84-7.08,28.81,28.81,0,0,1-1.57-9.77,46.21,46.21,0,0,1,2.45-16.15,21.1,21.1,0,0,1,7.42-10.12,30.24,30.24,0,0,1,11.08-5,67.67,67.67,0,0,1,14.84-1.4q15.19,0,20.69-2c3.66-1.34,5.5-3.41,5.5-6.2q0-5.94-11.44-8a88,88,0,0,0-24.26-.88Q949.64,1351.28,943.53,1353.72Zm55.34,26.36a21.07,21.07,0,0,1-2,2.1,24.72,24.72,0,0,1-5.85,3.23,23.05,23.05,0,0,1-9.43,2q-8.55,0-13.88,2.1t-5.32,5.93a7.4,7.4,0,0,0,3.84,6.81q3.84,2.28,15.36,2.27c3.14,0,5.56,0,7.25-.09a10.21,10.21,0,0,0,4.71-1.3,11.67,11.67,0,0,0,3.06-2.27,10.77,10.77,0,0,0,1.48-4.46,43.89,43.89,0,0,0,.7-6.54C998.85,1387.76,998.87,1384.51,998.87,1380.08Z" transform="translate(-753.59 -431.68)" />
    <path class="cls-1" d="M1115.66,1291.57a14,14,0,0,0,6.55,2.44,54.45,54.45,0,0,0,7.16.53,20,20,0,0,1,6.2,1,7.88,7.88,0,0,1,4.62,4.62q1.66,3.68,1.66,10.65v103c-.12.12-.67.79-1.66,2a29.16,29.16,0,0,1-2.7,3,25.17,25.17,0,0,1-4.54,3,31.81,31.81,0,0,1-7.33,2.88,89.76,89.76,0,0,1-10.83,1.92,122.13,122.13,0,0,1-15.36.87q-26.9,0-38.58-11.61t-11.7-38.67a58.67,58.67,0,0,1,2.79-18.76,39,39,0,0,1,7.42-13.53,41.15,41.15,0,0,1,10.91-8.73,46.27,46.27,0,0,1,12.75-4.89,63.42,63.42,0,0,1,13.44-1.4q13.44,0,19.2,4.19Zm0,87.29v-24.79a49.57,49.57,0,0,0-5-1.22,56.25,56.25,0,0,0-6.72-.79,47.77,47.77,0,0,0-7.6.09,23.52,23.52,0,0,0-7.42,2.09,21.65,21.65,0,0,0-6.63,4.63,21.1,21.1,0,0,0-4.54,8A38,38,0,0,0,1076,1379a29.06,29.06,0,0,0,2.09,11.53,18.22,18.22,0,0,0,12.66,11.43,38.59,38.59,0,0,0,8,1.57,43.71,43.71,0,0,0,7.77-.17q4.19-.44,5.84-.79c1.11-.23,2.13-.46,3.06-.7h.17Q1115.84,1401.9,1115.66,1378.86Z" transform="translate(-753.59 -431.68)" />
    <path class="cls-1" d="M1171.27,1319.24a13.91,13.91,0,1,1,9.86,4.1A13.42,13.42,0,0,1,1171.27,1319.24Zm22.78,27.5q0-8.55-2.79-12.31c-1.87-2.5-4-3.75-6.38-3.75s-5.29-.15-8.72-.44a16.24,16.24,0,0,1-8.3-2.71v98.64q12.75.69,19.64-2.53t6.55-13.71Z" transform="translate(-753.59 -431.68)" />
    <path class="cls-1" d="M1308.22,1362.62v63.55a68.56,68.56,0,0,1-10.47-.09,30.63,30.63,0,0,1-8.3-2,10.75,10.75,0,0,1-5.76-5.16,18.37,18.37,0,0,1-1.66-9v-46.78q-2.61-12.75-23.74-10.13c-7.33.94-11.58,1.63-12.74,2.1a40.58,40.58,0,0,1,.52,7v47.83a17.68,17.68,0,0,1-1.74,9,11.17,11.17,0,0,1-5.77,5.16,29.41,29.41,0,0,1-8.2,2,68.7,68.7,0,0,1-10.48.09v-85q0-11.34,36.49-12.22Q1308,1327.54,1308.22,1362.62Z" transform="translate(-753.59 -431.68)" />
    <path class="cls-1" d="M1389.48,1424.77a100.49,100.49,0,0,1-13.18-.17,72.43,72.43,0,0,1-13.18-2,47.8,47.8,0,0,1-11.61-4.89,32.51,32.51,0,0,1-9.77-8.38,40.31,40.31,0,0,1-6.29-12.83,60.53,60.53,0,0,1-2.44-18q0-39.1,31.77-47,16.41-4.18,46.26,1,7.15,1.92,10.13,3.92t3,6.73v72.1a.51.51,0,0,1,.17.35q3.68,9.94,2.36,17.54a28.91,28.91,0,0,1-5.59,13.09,31.27,31.27,0,0,1-11.7,9,67.28,67.28,0,0,1-15.88,5.15,93.65,93.65,0,0,1-18.07,1.66q-8.73,0-15.28-.61a73.16,73.16,0,0,1-9.77-1.4,27.09,27.09,0,0,1-5.24-1.74,6.87,6.87,0,0,1-2.27-1.4,3.12,3.12,0,0,0-.44-.61q0-14.83,4.46-17.37t22.6-.78l5.94.52q14.67,0,22.52-4.1t4.36-10.91Q1395.16,1424.42,1389.48,1424.77Zm7.77-71.22q-2.26,0-6.46-.09t-6.54-.18a58.82,58.82,0,0,0-6,.18,26.06,26.06,0,0,0-5.85,1,29.29,29.29,0,0,0-4.8,2.09,11,11,0,0,0-4,3.49,19.76,19.76,0,0,0-2.36,5.42,27.7,27.7,0,0,0-1,7.68q0,7.5.18,10.65a44.17,44.17,0,0,0,1.22,7.59c.7,3,1.8,5,3.32,5.94a30.64,30.64,0,0,0,6.54,3,28.48,28.48,0,0,0,10.74,1.13q6.45-.35,16.06-1.57v-46.26Z" transform="translate(-753.59 -431.68)" />
    <path class="cls-1" d="M1541.28,1341.15q0,12.4-8.91,23.92-4.71,5.94-14,9.69t-22.08,3.75h-18.51v47.66h-29.85V1303.62h48.36q21.3,0,33.17,11T1541.28,1341.15Zm-63.55,14.67h18.51q6.81,0,10.73-4a14.46,14.46,0,0,0,3.93-10.56,14.9,14.9,0,0,0-4-10.74,14.09,14.09,0,0,0-10.65-4.19h-18.51Z" transform="translate(-753.59 -431.68)" />
    <path class="cls-1" d="M1580.91,1409.93q.35,10.48-6.55,13.71t-19.64,2.53V1290a16.29,16.29,0,0,0,8.29,2.71q5.15.43,8.73.43c2.38,0,4.51,1.25,6.37,3.75s2.8,6.61,2.8,12.31Z" transform="translate(-753.59 -431.68)" />
    <path class="cls-1" d="M1612.5,1353.72a8.13,8.13,0,0,0-.17-1.4,17.37,17.37,0,0,1-.09-3.4,31.35,31.35,0,0,1,.52-4.8,23.57,23.57,0,0,1,1.75-5.15,14.87,14.87,0,0,1,3.49-4.89,17.75,17.75,0,0,1,5.94-3.4,25.21,25.21,0,0,1,8.81-1.4h4.89q4.54-.18,9.34,0c3.2.12,6.4.26,9.6.44a45.37,45.37,0,0,1,9.34,1.48,65,65,0,0,1,8.64,3,25.12,25.12,0,0,1,7.51,5,35.73,35.73,0,0,1,5.94,7.42,35.2,35.2,0,0,1,3.92,10.3,62.19,62.19,0,0,1,1.4,13.79v19.21a49.91,49.91,0,0,1-1.57,13,34.16,34.16,0,0,1-3.93,9.52,26.75,26.75,0,0,1-5.85,6.46,29.19,29.19,0,0,1-6.54,4.1,35.88,35.88,0,0,1-7.07,2.1,61.92,61.92,0,0,1-6.2,1c-1.46.11-3.17.17-5.15.17h-24.09c-.35,0-.88,0-1.58-.09s-2-.23-3.92-.52a33,33,0,0,1-5.5-1.31,28,28,0,0,1-5.85-2.88,22.77,22.77,0,0,1-5.5-4.71,23.22,23.22,0,0,1-3.84-7.08,28.57,28.57,0,0,1-1.57-9.77,46.46,46.46,0,0,1,2.44-16.15,21.23,21.23,0,0,1,7.42-10.12,30.29,30.29,0,0,1,11.09-5,67.67,67.67,0,0,1,14.84-1.4q15.18,0,20.68-2t5.5-6.2q0-5.94-11.43-8a88,88,0,0,0-24.27-.88Q1618.62,1351.28,1612.5,1353.72Zm55.34,26.36a20.22,20.22,0,0,1-2,2.1,24.38,24.38,0,0,1-5.84,3.23,23.05,23.05,0,0,1-9.43,2q-8.57,0-13.88,2.1t-5.33,5.93a7.39,7.39,0,0,0,3.85,6.81c2.55,1.52,7.68,2.27,15.36,2.27,3.14,0,5.56,0,7.24-.09a10.21,10.21,0,0,0,4.72-1.3,11.42,11.42,0,0,0,3-2.27,10.74,10.74,0,0,0,1.49-4.46,45.19,45.19,0,0,0,.69-6.54C1667.81,1387.76,1667.84,1384.51,1667.84,1380.08Z" transform="translate(-753.59 -431.68)" />
    <path class="cls-1" d="M1807,1362.62v63.55a68.7,68.7,0,0,1-10.48-.09,30.56,30.56,0,0,1-8.29-2,10.68,10.68,0,0,1-5.76-5.16,18.26,18.26,0,0,1-1.66-9v-46.78q-2.61-12.75-23.74-10.13c-7.33.94-11.58,1.63-12.74,2.1a41.62,41.62,0,0,1,.52,7v47.83a17.68,17.68,0,0,1-1.75,9,11.11,11.11,0,0,1-5.76,5.16,29.49,29.49,0,0,1-8.2,2,68.72,68.72,0,0,1-10.48.09v-85q0-11.34,36.49-12.22Q1806.8,1327.54,1807,1362.62Z" transform="translate(-753.59 -431.68)" />
    <path class="cls-1" d="M1865.81,1400.77q5.4,2.7,13.7,2.79a147,147,0,0,0,16.24-.7q7.93-.78,15-1.83c4.72-.7,7.42-1,8.12-1q.69,15.19-6,21.48t-27,6.28q-27.93,0-41-11.35t-13.09-39.28q0-14,3.57-23.65t10.48-14.75a43.11,43.11,0,0,1,15.36-7.16,83,83,0,0,1,19.82-2.1q21.64,0,31.86,9.17t10.21,29.24q0,7.68-3,12.31a14.46,14.46,0,0,1-7.77,6.2,56.81,56.81,0,0,1-11.52,2.27,92.49,92.49,0,0,1-13.27.43,92.84,92.84,0,0,0-14.14.61,53.12,53.12,0,0,0-13,3Q1860.4,1398.07,1865.81,1400.77Zm3.4-29.24q6.72-.71,12.57-.79a23,23,0,0,0,10.39-2.44,7.5,7.5,0,0,0,4.36-7.42q0-4.55-7.15-7.51a25.56,25.56,0,0,0-19.38-.7q-13.1,4.72-10.48,21.65Q1862.49,1372.22,1869.21,1371.53Z" transform="translate(-753.59 -431.68)" />
    <path class="cls-1" d="M2000.75,1403.47a24.82,24.82,0,0,1,.7,14.15q-1.74,6.45-5.93,8.55a41.53,41.53,0,0,1-17.72,1.66,43.79,43.79,0,0,1-15.37-4.8,28.71,28.71,0,0,1-10.91-10.65,30.32,30.32,0,0,1-4.19-15.89v-75.07a17.62,17.62,0,0,1,1.75-9,11.13,11.13,0,0,1,5.76-5.15,29.77,29.77,0,0,1,8.2-2,70.16,70.16,0,0,1,10.48-.08v25.31h30v1.31a30.09,30.09,0,0,1-.35,3.23,32.27,32.27,0,0,1-1,4.71,22.06,22.06,0,0,1-2.36,5,17.1,17.1,0,0,1-10,7.85,26.18,26.18,0,0,1-8.55,1.31c-2.79,0-5.35.07-7.68.18l.17,40.33c-.11,3.14.53,5.56,1.92,7.24a8.37,8.37,0,0,0,5.68,3,36.46,36.46,0,0,0,7.16.17q3.57-.26,7.33-.78A46.09,46.09,0,0,1,2000.75,1403.47Z" transform="translate(-753.59 -431.68)" />
    <path class="cls-1" d="M1516.8,656.84H1205.42V775.12h108.16v362.67h0a118.29,118.29,0,0,0,118.28-118.28v-242h97.64V993.42h0a108,108,0,0,0,108-108v-108h0A120.66,120.66,0,0,0,1516.8,656.84Z" transform="translate(-753.59 -431.68)" />
    <path class="cls-1" d="M1318,532.12a340,340,0,0,1,107.34-19.67,67.91,67.91,0,0,0,125.31,21.39,339.63,339.63,0,0,1,202,205q1.21,3.42,2.35,6.84-4.14-15.78-9.71-31.47a381.09,381.09,0,0,0-185.48-212c0-.47.05-.93.06-1.4A67.9,67.9,0,0,0,1434.8,463a380.83,380.83,0,0,0-177.9,18.89c-199,70.73-303,289.42-232.32,488.45a384.64,384.64,0,0,0,27.85,61,85.53,85.53,0,0,0,107.19,120c98.62,71.78,229.8,95.27,353.41,51.35a380.59,380.59,0,0,0,165-114.6A338.87,338.87,0,0,1,1546,1173.58c-121.17,43.06-250.52,13.33-340.31-66.45a85.53,85.53,0,0,0-76.44-120.61,87.93,87.93,0,0,0-10,.42c-2.81-6.58-5.46-13.28-7.9-20.12C1048.31,789.69,1140.87,595.06,1318,532.12Z" transform="translate(-753.59 -431.68)" />
</svg>