<?xml version="1.0" encoding="utf-8"?>
<!-- Generator: Adobe Illustrator 25.0.0, SVG Export Plug-In . SVG Version: 6.00 Build 0)  -->
<svg version="1.1" id="Layer_1" xmlns="http://www.w3.org/2000/svg" xmlns:xlink="http://www.w3.org/1999/xlink" x="0px" y="0px"
	 viewBox="0 0 32 30" style="enable-background:new 0 0 32 30;" xml:space="preserve">
<style type="text/css">
	.st0{fill:#0B0055;}
</style>
<g>
	<path class="st0" d="M22.5,8.4H9.7v4.3h4.4v13.1l0,0c2.7,0,4.8-1.9,4.8-4.3v-8.7h4v7.8l0,0c2.4,0,4.4-1.7,4.4-3.9l0,0v-3.9l0,0
		C27.4,10.4,25.2,8.4,22.5,8.4z"/>
	<path class="st0" d="M13.5,4.3c1.4-0.4,2.9-0.7,4.4-0.7c0.3,1.3,1.8,2.2,3.3,1.9C22,5.4,22.6,5,23,4.4c3.9,1.3,6.9,4,8.3,7.4
		c0,0.1,0.1,0.2,0.1,0.2c-0.1-0.4-0.3-0.8-0.4-1.1c-1.3-3.3-4.1-6-7.6-7.6c0,0,0,0,0,0c0-1.3-1.2-2.5-2.7-2.5c-1,0-1.9,0.4-2.4,1.1
		c-2.5-0.3-5-0.1-7.3,0.7C2.8,5.1-1.4,12.9,1.5,20.1c0.3,0.8,0.7,1.5,1.1,2.2c-0.9,1.5-0.3,3.4,1.4,4.2C5,26.9,6,27,7,26.6
		c4,2.6,9.4,3.4,14.5,1.9c2.6-0.8,5-2.2,6.8-4.1c-1.5,1.4-3.4,2.4-5.4,3.1c-5,1.6-10.3,0.5-13.9-2.4c0.8-1.6,0-3.4-1.8-4.1
		c-0.4-0.2-0.9-0.3-1.4-0.3c-0.1,0-0.3,0-0.4,0C5.3,20.5,5.1,20.3,5,20C2.4,13.6,6.2,6.6,13.5,4.3z"/>
</g>
</svg>
