<?xml version="1.0" encoding="utf-8"?>
<!-- Generator: Adobe Illustrator 25.0.0, SVG Export Plug-In . SVG Version: 6.00 Build 0)  -->
<svg version="1.1" id="Layer_1" xmlns="http://www.w3.org/2000/svg" xmlns:xlink="http://www.w3.org/1999/xlink" x="0px" y="0px"
	 viewBox="0 0 1249.9 1030.5" style="enable-background:new 0 0 1249.9 1030.5;" xml:space="preserve">
<style type="text/css">
	.st0{fill:#0B0055;}
</style>
<path class="st0" d="M668.4,477h-55v20.9h19.1V562l0,0c11.5,0,20.9-9.4,20.9-20.9v-42.8h17.3v38.2l0,0c10.5,0,19.1-8.5,19.1-19.1
	l0,0v-19.1l0,0C689.7,486.5,680.1,477,668.4,477z"/>
<path class="st0" d="M629.6,456.9c6.1-2.2,12.5-3.3,19-3.5c1.3,6.5,7.6,10.8,14.1,9.5c3.4-0.7,6.3-2.7,8.1-5.7
	c16.7,6.2,29.8,19.5,35.7,36.2c0.1,0.4,0.3,0.8,0.4,1.2c-0.5-1.9-1.1-3.7-1.7-5.6c-5.7-16.2-17.5-29.6-32.8-37.5c0-0.1,0-0.2,0-0.2
	c0.1-6.6-5.2-12.1-11.8-12.2c-4.2-0.1-8.1,2-10.3,5.5c-10.6-1.4-21.4-0.3-31.4,3.3c-35.2,12.5-53.5,51.1-41.1,86.3
	c1.3,3.7,3,7.3,4.9,10.8c-4,7.3-1.2,16.5,6.1,20.5c4,2.1,8.7,2.4,12.8,0.7c17.4,12.7,40.6,16.8,62.5,9.1c11.4-4,21.4-11,29.2-20.3
	c-6.5,6.8-14.5,12-23.3,15.1c-21.4,7.6-44.3,2.4-60.1-11.7c3.4-7.6,0-16.6-7.6-20c-1.9-0.8-3.9-1.3-5.9-1.3c-0.6,0-1.2,0-1.8,0.1
	c-0.5-1.2-1-2.3-1.4-3.6C581.9,502.5,598.3,468.1,629.6,456.9z"/>
</svg>
