<?xml version="1.0" encoding="utf-8"?>
<!-- Generator: Adobe Illustrator 25.0.0, SVG Export Plug-In . SVG Version: 6.00 Build 0)  -->
<svg version="1.1" id="Layer_1" xmlns="http://www.w3.org/2000/svg" xmlns:xlink="http://www.w3.org/1999/xlink" x="0px" y="0px"
	 viewBox="0 0 32 30" style="enable-background:new 0 0 32 30;" xml:space="preserve">
<style type="text/css">
	.st0{fill:#0B0055;}
</style>
<g>
	<path class="st0" d="M22.3,9.9H9.9v3.3h4.3v10.1l0,0c2.6,0,4.7-1.5,4.7-3.3v-6.7h3.9v6l0,0c2.3,0,4.3-1.3,4.3-3l0,0v-3l0,0
		C27.1,11.4,25,9.9,22.3,9.9z"/>
	<path class="st0" d="M13.6,6.7c1.4-0.3,2.8-0.5,4.3-0.5c0.3,1,1.8,1.7,3.2,1.5c0.8-0.1,1.4-0.4,1.8-0.9c3.8,1,6.7,3.1,8.1,5.7
		c0,0.1,0.1,0.2,0.1,0.2c-0.1-0.3-0.3-0.6-0.4-0.9c-1.3-2.6-4-4.6-7.4-5.9l0,0C23.2,5,22,4,20.6,4c-1,0-1.8,0.3-2.3,0.9
		c-2.4-0.2-4.9-0.1-7.1,0.5c-8,1.9-12.1,8-9.2,13.5c0.3,0.6,0.7,1.2,1.1,1.7c-0.9,1.2-0.3,2.6,1.4,3.2c1,0.3,1.9,0.4,2.9,0.1
		c3.9,2,9.1,2.6,14.1,1.5c2.5-0.6,4.9-1.7,6.6-3.2c-1.5,1.1-3.3,1.9-5.3,2.4c-4.9,1.2-10,0.4-13.5-1.9c0.8-1.2,0-2.6-1.8-3.2
		c-0.4-0.2-0.9-0.2-1.4-0.2c-0.1,0-0.3,0-0.4,0c-0.1-0.2-0.3-0.3-0.4-0.5C2.8,13.9,6.5,8.5,13.6,6.7z"/>
</g>
</svg>
